<svg xmlns="http://www.w3.org/2000/svg" version="1.1" xmlns:xlink="http://www.w3.org/1999/xlink" width="1000" height="1000"><g clip-path="url(#SvgjsClipPath1013)"><rect width="1000" height="1000" fill="#ffffff"></rect><g transform="matrix(18.181818181818183,0,0,18.181818181818183,99.99999999999994,99.99999999999994)"><svg xmlns="http://www.w3.org/2000/svg" version="1.1" xmlns:xlink="http://www.w3.org/1999/xlink" width="44" height="44"><svg class="block size-full" fill="none" preserveAspectRatio="xMidYMid meet" viewBox="0 0 44 44"><g clip-path="url(#clip0_26_1157)"><path d="M32.1813 30.8832L43.5259 24.2342C43.6199 23.4402 43.6617 22.6202 43.6617 21.8002C43.6617 19.5072 43.3117 17.2979 42.6484 15.2191L5.91952 36.733C9.8943 40.9794 15.5614 43.6275 21.8343 43.6275C30.8807 43.6275 38.637 38.1328 41.9485 30.2982L34.4168 34.7065C34.0668 34.9102 33.6855 35.0094 33.3042 35.0094C32.5469 35.0094 31.8052 34.6125 31.3874 33.9126C30.771 32.8575 31.1314 31.4995 32.1813 30.8832Z" fill="currentColor"></path><path d="M0.00690847 21.8008C-0.019207 22.6365 0.0278009 23.5036 0.163602 24.402L24.6965 10.028C25.0517 9.82427 25.433 9.72503 25.8143 9.72503C26.5716 9.72503 27.3133 10.122 27.7311 10.8167C28.3475 11.877 27.9923 13.235 26.9372 13.8565L1.19778 28.9304C1.71486 30.4346 2.39387 31.8605 3.20867 33.1924L40.8725 11.13C38.5325 6.94634 34.8502 3.61923 30.4106 1.72324L14.1145 11.2711C13.7593 11.4748 13.3781 11.574 12.9915 11.574C12.2342 11.574 11.4977 11.1823 11.0851 10.4772C10.4636 9.42209 10.8187 8.06931 11.8738 7.44776L24.3622 0.119747C24.3257 0.109301 24.2891 0.0884084 24.2526 0.0831853C10.3941 -1.0663 0.377749 9.8765 0.00690847 21.8008Z" fill="currentColor"></path></g><defs><clipPath id="clip0_26_1157"><rect fill="white" height="43.6272" width="43.6616"></rect></clipPath><clipPath id="SvgjsClipPath1013"><rect width="1000" height="1000" x="0" y="0" rx="350" ry="350"></rect></clipPath></defs></svg></svg></g></g></svg>